<svg width="12" height="13" viewBox="0 0 12 13" fill="none" xmlns="http://www.w3.org/2000/svg">
<path d="M11.8125 6.5C11.8125 7.54688 11.5469 8.51562 11.0156 9.40625C10.5 10.2969 9.79688 11 8.90625 11.5156C8.01562 12.0469 7.04688 12.3125 6 12.3125C4.95312 12.3125 3.98438 12.0469 3.09375 11.5156C2.20312 11 1.49219 10.2969 0.960938 9.40625C0.445312 8.51562 0.1875 7.54688 0.1875 6.5C0.1875 5.45312 0.445312 4.48438 0.960938 3.59375C1.49219 2.70312 2.20312 2 3.09375 1.48438C3.98438 0.953125 4.95312 0.6875 6 0.6875C7.04688 0.6875 8.01562 0.953125 8.90625 1.48438C9.79688 2 10.5 2.70312 11.0156 3.59375C11.5469 4.48438 11.8125 5.45312 11.8125 6.5ZM5.32031 9.57031L9.63281 5.25781C9.71094 5.19531 9.75 5.10938 9.75 5C9.75 4.89062 9.71094 4.80469 9.63281 4.74219L9.11719 4.20312C9.03906 4.125 8.94531 4.08594 8.83594 4.08594C8.74219 4.08594 8.65625 4.125 8.57812 4.20312L5.0625 7.71875L3.42188 6.07812C3.34375 6 3.25 5.96094 3.14062 5.96094C3.04688 5.96094 2.96094 6 2.88281 6.07812L2.36719 6.61719C2.28906 6.67969 2.25 6.76562 2.25 6.875C2.25 6.98438 2.28906 7.07031 2.36719 7.13281L4.80469 9.57031C4.86719 9.64844 4.95312 9.6875 5.0625 9.6875C5.17188 9.6875 5.25781 9.64844 5.32031 9.57031Z" fill="#4EEF61"/>
</svg>
