<svg width="12" height="13" fill="none" xmlns="http://www.w3.org/2000/svg"><path d="M11.813 6.5a5.57 5.57 0 01-.797 2.906 5.692 5.692 0 01-2.11 2.11A5.57 5.57 0 016 12.312a5.57 5.57 0 01-2.906-.796A5.872 5.872 0 01.96 9.406 5.7 5.7 0 01.188 6.5 5.7 5.7 0 01.96 3.594a5.873 5.873 0 012.133-2.11A5.571 5.571 0 016 .688a5.57 5.57 0 012.906.796 5.692 5.692 0 012.11 2.11c.53.89.796 1.86.796 2.906zM5.32 9.57l4.313-4.312A.312.312 0 009.75 5c0-.11-.04-.195-.117-.258l-.516-.539a.384.384 0 00-.281-.117.358.358 0 00-.258.117L5.063 7.72 3.422 6.08a.384.384 0 00-.281-.118.358.358 0 00-.258.117l-.516.54a.312.312 0 00-.117.257c0 .11.04.195.117.258L4.805 9.57a.312.312 0 00.258.117.31.31 0 00.257-.117z" fill="#4EEF61"/></svg>