<svg width="14" height="16" fill="none" xmlns="http://www.w3.org/2000/svg"><path d="M1.344 14.563a4.683 4.683 0 01-1.188-2.157 4.954 4.954 0 010-2.469 4.795 4.795 0 011.25-2.156l6.532-6.718c.458-.459.99-.771 1.593-.938a3.462 3.462 0 011.844 0c.604.167 1.135.48 1.594.938.458.458.76 1 .906 1.625a3.461 3.461 0 010 1.843 3.323 3.323 0 01-.906 1.594L7.25 11.969a2.244 2.244 0 01-1.688.719 2.407 2.407 0 01-1.687-.72 2.422 2.422 0 01-.656-1.687 2.4 2.4 0 01.719-1.687L8.405 4a.538.538 0 01.344-.125.42.42 0 01.375.125l.719.688a.511.511 0 01.156.375c0 .125-.052.24-.156.343L5.344 10a.705.705 0 00-.125.313c0 .104.031.197.093.28a.416.416 0 00.25.095.297.297 0 00.25-.126l5.72-5.812A1.64 1.64 0 0012 3.594c0-.438-.156-.813-.469-1.125A1.4 1.4 0 0010.47 2a1.5 1.5 0 00-1.094.469L2.812 9.156A2.823 2.823 0 002 11.187c0 .771.26 1.438.781 2C3.323 13.73 3.97 14 4.72 14s1.385-.27 1.906-.813L12 7.688a.478.478 0 01.344-.156.51.51 0 01.375.157l.719.687c.104.104.156.23.156.375 0 .125-.052.24-.156.344l-5.376 5.5a4.445 4.445 0 01-2.156 1.25 4.61 4.61 0 01-2.437-.031 4.446 4.446 0 01-2.125-1.25z" fill="#2E2236"/></svg>